# xmcd
#
# Track frame offsets:
#	150
#	19606
#	37510
#	55635
#	70006
#	84354
#	99586
#	113583
#	136152
#	155956
#
# Disc length: 2414 seconds
#
# Revision: 1
# Processed by: cddbd v1.5.2PL0 Copyright (c) Steve Scherf et al.
# Submitted via: audiograbber 1.83.01
#
DISCID=6c096c0a
DTITLE=Jennings Shooter - Family Man
DYEAR=2012
DGENRE=Country
TTITLE0=The Real Me
TTITLE1=The Long Road Ahead
TTITLE2=The Deed and The Dollar
TTITLE3=Manifesto No. 4
TTITLE4=Summer Dreams
TTITLE5=Southern Family Anthem
TTITLE6=Daddy's Hands
TTITLE7=The Black Dog
TTITLE8=The Family Tree
TTITLE9=Born Again
EXTD=
EXTT0=
EXTT1=With Tom Morell And Eleanor Whitmore
EXTT2=
EXTT3=
EXTT4=
EXTT5=
EXTT6=
EXTT7=
EXTT8=
EXTT9=
PLAYORDER=
